<svg width="20" height="20" viewBox="0 0 20 20" fill="none" xmlns="http://www.w3.org/2000/svg">
<path d="M18.396 0.82749L12.3406 6.88282C12.2226 6.35975 11.9736 5.79585 11.5957 5.19834C11.3236 4.76802 10.8573 4.5111 10.3483 4.51113C10.178 4.51113 10.0127 4.54052 9.85755 4.59499C9.76826 4.00571 9.50412 3.36058 9.06779 2.67046C8.7957 2.24014 8.32943 1.98322 7.82044 1.98322C7.31144 1.98322 6.84518 2.24014 6.57301 2.67046C6.37348 2.98612 6.21022 3.29226 6.08279 3.58808C5.96219 3.39766 5.82514 3.22014 5.66907 3.06403C5.17258 2.5675 4.41453 2.20168 3.41598 1.97666C2.9193 1.86477 2.4079 2.01282 2.04798 2.3727C1.6881 2.73262 1.53997 3.24395 1.65194 3.7407C1.87692 4.73922 2.24278 5.49726 2.73927 5.99375C2.8952 6.14968 3.0725 6.28658 3.2627 6.40708C2.96743 6.53439 2.66194 6.69732 2.34691 6.89646C1.91659 7.16851 1.6597 7.63481 1.6597 8.14384C1.6597 8.65288 1.91662 9.11914 2.34694 9.39123C3.0371 9.82756 3.68223 10.0917 4.27147 10.181C4.21704 10.3361 4.18765 10.5014 4.18765 10.6718C4.18765 11.1808 4.44457 11.6471 4.87489 11.9192C5.47245 12.297 6.03631 12.546 6.55938 12.664L0.827285 18.3961C0.61291 18.6105 0.61291 18.9581 0.827285 19.1725C1.04166 19.3869 1.38929 19.3869 1.6037 19.1725L6.88933 13.8869C7.00756 14.1156 7.1854 14.313 7.41192 14.4562C8.27708 15.0032 9.07176 15.2805 9.77395 15.2805C10.9746 15.2805 12.2249 14.4406 12.8507 13.9519L16.9612 18.0622C17.1755 18.2766 17.5232 18.2766 17.7376 18.0622C17.8448 17.955 17.8984 17.8145 17.8984 17.674C17.8984 17.5335 17.8448 17.393 17.7376 17.2858L13.6273 13.1756C14.1158 12.5502 14.9571 11.299 14.9571 10.0974C14.9571 9.39524 14.6797 8.60056 14.1328 7.73536C13.9896 7.50889 13.7922 7.33104 13.5635 7.21281L19.1724 1.60394C19.2796 1.49672 19.3332 1.35617 19.3332 1.21566C19.3332 1.07515 19.2796 0.934641 19.1724 0.827452C18.958 0.613077 18.6103 0.613077 18.396 0.82749ZM3.51573 5.21733C3.17331 4.87491 2.89921 4.28083 2.72316 3.49934C2.71623 3.46868 2.71324 3.43973 2.71324 3.41253C2.71324 3.27716 2.78765 3.18598 2.82447 3.14912C2.86874 3.1049 2.99138 3.00653 3.17466 3.0478C3.95618 3.2239 4.55023 3.49795 4.89265 3.84037C5.42151 4.36924 5.68 5.38715 5.78927 6.11392C5.06236 6.00461 4.04459 5.74616 3.51573 5.21733ZM6.84678 5.03245C6.84678 4.54821 7.07308 3.93432 7.50113 3.25722C7.60161 3.09837 7.75795 3.0812 7.82047 3.0812C7.883 3.0812 8.0393 3.09837 8.1397 3.25718C8.5678 3.93432 8.79409 4.54817 8.79409 5.03245C8.79409 5.78039 8.25706 6.68296 7.82044 7.27409C7.3837 6.68277 6.84678 5.78028 6.84678 5.03245ZM2.93381 8.46315C2.77496 8.3627 2.75779 8.20637 2.75779 8.14388C2.75779 8.08139 2.77496 7.92506 2.93378 7.82461C3.61095 7.39652 4.22477 7.17022 4.70904 7.17022C5.45699 7.17022 6.35955 7.70722 6.95069 8.14384C6.35937 8.58062 5.45688 9.1175 4.70904 9.1175C4.22477 9.1175 3.61092 8.89124 2.93381 8.46315ZM5.46176 10.9911C5.30291 10.8907 5.28574 10.7344 5.28574 10.6718C5.28574 10.6093 5.30291 10.453 5.46173 10.3526C6.13887 9.92443 6.75268 9.69817 7.23699 9.69817C7.77742 9.69817 8.39848 9.97857 8.92458 10.2988L7.61955 11.6039C7.48925 11.6305 7.36095 11.6455 7.23699 11.6455C6.75272 11.6455 6.13883 11.4192 5.46176 10.9911ZM12.0157 13.2087C11.4243 13.6455 10.5219 14.1824 9.77402 14.1824C9.28971 14.1824 8.67586 13.9562 7.99879 13.5281C7.83994 13.4276 7.82277 13.2713 7.82277 13.2088C7.82277 13.1463 7.83994 12.9899 7.99875 12.8895C8.6759 12.4614 9.28971 12.2351 9.77402 12.2351C10.522 12.2351 11.4245 12.7722 12.0157 13.2087ZM13.2046 8.32212C13.6327 8.99927 13.859 9.61312 13.859 10.0974C13.859 10.8453 13.322 11.7479 12.8854 12.339C12.4486 11.7477 11.9117 10.8452 11.9117 10.0974C11.9117 9.61315 12.138 8.99927 12.5661 8.32212C12.6665 8.16331 12.8229 8.14614 12.8853 8.14614C12.9479 8.14618 13.1042 8.16331 13.2046 8.32212ZM11.3221 7.56036C11.3221 7.68432 11.3071 7.81258 11.2805 7.94296L9.97545 9.24798C9.65513 8.72189 9.3748 8.10079 9.3748 7.5604C9.3748 7.07612 9.6011 6.46224 10.0292 5.78513C10.1296 5.62632 10.2859 5.60915 10.3484 5.60915C10.4109 5.60915 10.5672 5.62632 10.6677 5.78513C11.0957 6.46224 11.3221 7.07609 11.3221 7.56036Z" fill="#333333"/>
</svg>
